<?xml version="1.0" standalone="no"?><!DOCTYPE svg PUBLIC "-//W3C//DTD SVG 1.1//EN" "http://www.w3.org/Graphics/SVG/1.1/DTD/svg11.dtd"><svg t="1543289859476" class="icon" style="" viewBox="0 0 1024 1024" version="1.1" xmlns="http://www.w3.org/2000/svg" p-id="2159" xmlns:xlink="http://www.w3.org/1999/xlink" width="200" height="200"><defs><style type="text/css"></style></defs><path d="M512.000512 344.135828c-100.70868 0-182.350095 81.640392-182.350095 182.348048s81.641415 182.349071 182.350095 182.349071c100.70561 0 182.348048-81.641415 182.348048-182.349071S612.706121 344.135828 512.000512 344.135828z" p-id="2160"></path><path d="M879.229291 229.637074 754.566036 229.637074l-75.05951-83.400478L341.665055 146.236596l-72.67623 83.400478-124.219139 0c-44.26004 0-80.139202 36.56273-80.139202 81.669044l0 484.787218c0 45.105291 35.879162 81.669044 80.139202 81.669044l734.459604 0c44.262086 0 80.139202-36.56273 80.139202-81.669044L959.368492 311.306118C959.369515 266.200828 923.491377 229.637074 879.229291 229.637074zM512.000512 799.301402c-150.673651 0-272.817526-122.143874-272.817526-272.817526 0-150.671605 122.143874-272.816502 272.817526-272.816502 150.671605 0 272.815479 122.143874 272.815479 272.816502C784.814967 677.157527 662.672116 799.301402 512.000512 799.301402z" p-id="2161"></path></svg>