<?xml version="1.0" standalone="no"?><!DOCTYPE svg PUBLIC "-//W3C//DTD SVG 1.1//EN" "http://www.w3.org/Graphics/SVG/1.1/DTD/svg11.dtd"><svg class="icon" width="200px" height="200.00px" viewBox="0 0 1024 1024" version="1.1" xmlns="http://www.w3.org/2000/svg"><path fill="#ffffff" d="M417.792 120.32v280.064c0 32.256-26.112 58.368-58.368 58.368H79.36c-32.256 0-58.368-26.112-58.368-58.368V120.32c0-32.256 26.112-58.368 58.368-58.368h280.064c32.256 0.512 58.368 26.624 58.368 58.368z m0 503.296v280.064c0 32.256-26.112 58.368-58.368 58.368H79.36c-32.256 0-58.368-26.112-58.368-58.368v-280.064c0-32.256 26.112-58.368 58.368-58.368h280.064c32.256 0 58.368 26.112 58.368 58.368z m545.792-426.496h-423.424c-21.504 0-39.424-17.408-39.424-39.424v-22.528c0-21.504 17.92-39.424 39.424-39.424h423.424c21.504 0 39.424 17.92 39.424 39.424v22.528c-0.512 22.016-17.92 39.424-39.424 39.424z m0 232.448h-423.424c-21.504 0-39.424-17.408-39.424-39.424v-22.528c0-21.504 17.92-39.424 39.424-39.424h423.424c21.504 0 39.424 17.92 39.424 39.424v22.528c-0.512 22.016-17.92 39.424-39.424 39.424z m0 268.288h-423.424c-21.504 0-39.424-17.408-39.424-39.424v-22.528c0-21.504 17.92-39.424 39.424-39.424h423.424c21.504 0 39.424 17.92 39.424 39.424v22.528c-0.512 21.504-17.92 39.424-39.424 39.424z m0 232.448h-423.424c-21.504 0-39.424-17.408-39.424-39.424v-22.528c0-21.504 17.92-39.424 39.424-39.424h423.424c21.504 0 39.424 17.92 39.424 39.424v22.528c-0.512 22.016-17.92 39.424-39.424 39.424z m0 0"  /></svg>