<?xml version="1.0" standalone="no"?><!DOCTYPE svg PUBLIC "-//W3C//DTD SVG 1.1//EN" "http://www.w3.org/Graphics/SVG/1.1/DTD/svg11.dtd"><svg class="icon" width="200px" height="200.00px" viewBox="0 0 1024 1024" version="1.1" xmlns="http://www.w3.org/2000/svg"><path fill="#ffffff" d="M306.688 593.408l-94.208 244.224L450.56 737.28l-143.872-143.872z m0 0"  /><path fill="#ffffff" d="M832.512 925.184H105.984V192.512h507.392l81.408-87.552H61.952c-12.288 0-18.944 6.144-31.232 12.288-6.144 12.288-12.288 18.944-12.288 31.232v820.736c0 12.288 6.144 18.944 12.288 31.232 6.144 6.144 18.944 12.288 31.232 12.288h814.08c12.288 0 18.944-6.144 31.232-12.288 6.144-6.144 12.288-18.944 12.288-31.232V361.472l-94.208 87.552 7.168 476.16zM751.104 130.048l31.232-31.232-31.232 31.232z m0 0"  /><path fill="#ffffff" d="M331.264 556.032L481.792 706.56l419.84-425.984-150.528-150.528-444.928 444.928 25.088-18.944z m664.064-488.96L964.096 35.84c-18.944-18.944-37.376-25.088-62.464-25.088-25.088 0-44.032 6.144-62.464 25.088l-62.464 62.464L926.72 248.832l62.464-62.464c18.944-18.944 25.088-37.376 25.088-62.464 6.144-18.944 0-37.888-18.944-56.832z m0 0"  /></svg>