<?xml version="1.0" standalone="no"?><!DOCTYPE svg PUBLIC "-//W3C//DTD SVG 1.1//EN" "http://www.w3.org/Graphics/SVG/1.1/DTD/svg11.dtd"><svg class="icon" width="200px" height="200.00px" viewBox="0 0 1024 1024" version="1.1" xmlns="http://www.w3.org/2000/svg"><path fill="#ffffff" d="M674.304 593.92c0 87.552-71.168 158.72-158.72 158.72s-158.72-71.168-158.72-158.72 71.168-158.72 158.72-158.72c87.552-0.512 158.72 71.168 158.72 158.72z m333.824-225.792v451.584c0 60.416-48.64 109.056-109.056 109.056H131.584c-60.416 0-109.056-48.64-109.056-109.056V368.128c0-60.416 48.64-109.056 109.056-109.056h134.144v-37.888c0-52.736 42.496-95.232 95.232-95.232h308.736c52.736 0 95.232 42.496 95.232 95.232v37.888h134.144c60.416 0 109.056 48.64 109.056 109.056zM756.224 593.92c0-132.608-108.032-240.64-240.64-240.64s-240.64 108.032-240.64 240.64 108.032 240.64 240.64 240.64 240.64-108.032 240.64-240.64z m0 0"  /></svg>