<?xml version="1.0" standalone="no"?><!DOCTYPE svg PUBLIC "-//W3C//DTD SVG 1.1//EN" "http://www.w3.org/Graphics/SVG/1.1/DTD/svg11.dtd"><svg class="icon" width="200px" height="200.00px" viewBox="0 0 1024 1024" version="1.1" xmlns="http://www.w3.org/2000/svg"><path fill="#ffffff" d="M10.490755 703.136432c0 59.362319 63.456272 107.466267 142.264867 107.466267h91.090455l-15.352324 213.397301 284.017991-213.397301h359.244378c78.296852 0 142.264868-48.103948 142.264868-107.466267v-542.448776c0-59.362319-63.456272-107.466267-142.264868-107.466267H152.755622C73.947026 53.733133 10.490755 101.837081 10.490755 160.687656v542.448776z m695.460269-280.435782c0-48.615692 39.404298-88.531734 87.508246-88.531734 48.103948 0 87.508246 39.404298 87.508246 88.531734 0 48.615692-38.892554 88.531734-87.508246 88.531734-48.615692 0-87.508246-39.404298-87.508246-88.531734z m-274.806596 0.511744c0-48.615692 39.404298-88.531734 87.508246-88.531734 48.103948 0 87.508246 39.404298 87.508246 88.531734 0 48.615692-38.892554 88.531734-87.508246 88.531734-48.615692-0.511744-87.508246-39.916042-87.508246-88.531734z m-280.947526-1.535233c0-48.615692 39.404298-88.531734 87.508245-88.531734 48.103948 0 87.508246 39.404298 87.508246 88.531734 0 48.615692-38.892554 88.531734-87.508246 88.531735-48.615692 0-87.508246-39.404298-87.508245-88.531735z"  /></svg>